# xmcd
#
# Track frame offsets:
#	150
#	20252
#	29107
#	40480
#	61938
#	103435
#	141709
#	195339
#	198643
#
# Disc length: 2943 seconds
#
# Revision: 1
# Processed by: cddbd v1.5.2PL0 Copyright (c) Steve Scherf et al.
# Submitted via: audiograbber 1.83.01
#
DISCID=8c0b7d09
DTITLE=Grateful Dead - 87-05-03 Frost Amphitheatre, Palo Alto CA
DYEAR=1900
DGENRE=
TTITLE0=Space
TTITLE1=Space
TTITLE2=Space
TTITLE3=The Other One
TTITLE4=Black Peter
TTITLE5=Throwing Stones
TTITLE6=Not Fade Away
TTITLE7=Intro
TTITLE8=The Mighty Quinn
EXTD=
EXTT0=
EXTT1=
EXTT2=
EXTT3=
EXTT4=
EXTT5=
EXTT6=
EXTT7=
EXTT8=
PLAYORDER=
